<svg id="Layer_1" data-name="Layer 1" xmlns="http://www.w3.org/2000/svg" viewBox="0 0 514.72 514.72"><defs><style>.cls-1{fill:#e5f4f7;}.cls-2{fill:#626cb2;opacity:0.65;}.cls-3{fill:#2c3950;}</style></defs><circle class="cls-1" cx="257.36" cy="257.36" r="257.36"/><path class="cls-2" d="M431.75,414.36c1.36-1.61,2.64-3.28,3.83-5l.07-.09C449,390.55,454.23,367,456,344c2.28-28.94-1.19-60.4-20.33-82.37-13.14-15.1-32.35-24-52-28.27s-39.94-4.36-60.07-4.41c-42.74,0-85.5-.21-128.25-.31L163,228.51c-3.89,0-8.39-1.15-10.68.94a4,4,0,0,0-1,1.43l-.12.31h0c-1.48,4.06.13,12.19.13,16.43V621.52l25,0h17.94l36.44,0,106.61.07c22.77,0,46,0,67.7-6.76,40.72-12.59,72.45-49.93,78-91.81S467.76,437,431.75,414.36ZM267.3,292.57l54.77.74,18.67.61s19.52,0,30.05,9.28a43.31,43.31,0,0,1,13.14,20.61,18.73,18.73,0,0,1,1.14,2.1,56.93,56.93,0,0,1,1.16,5.9c1.61,11.09.35,23-5.87,32.36-6.65,10-18.22,16-30,18.59S326.27,385,314.18,385c-22.86-.14-45.91.7-68.12,6a150,150,0,0,0-14.46,4.2V293.57C243.39,292.25,255.41,292.4,267.3,292.57ZM398.17,523.51a39.89,39.89,0,0,1-3.83,9.24C388.24,543.3,376.84,550,365,553.2s-24.3,3.21-36.58,3.23l-97.21.13c-1.38-15.64-2.06-31.51.87-46.94,2.12-11.19,6.25-22.22,13-31.53,8.64-12,18.14-12.25,32.44-12.17l82,.47c11.51.07,24.29.62,32.48,8.63,7.69,7.52,8.86,19.29,8.59,30A76.17,76.17,0,0,1,398.17,523.51Z" transform="translate(-40.28 -163.58)"/><path class="cls-1" d="M322.07,293.31l-54.77-.74c-11.89-.17-23.91-.32-35.7,1V290.4Z" transform="translate(-40.28 -163.58)"/><path class="cls-1" d="M230.81,556.4H230V540.88c.05,2.5.15,5,.28,7.46,0,.1,0,.19,0,.29C230.45,551.22,230.62,553.82,230.81,556.4Z" transform="translate(-40.28 -163.58)"/><path class="cls-3" d="M189.9,621.53H151.23v0Z" transform="translate(-40.28 -163.58)"/><path class="cls-3" d="M231.21,557.08H230" transform="translate(-40.28 -163.58)"/><path class="cls-3" d="M151.26,556.4c-.07-2.59-.13-5.17-.18-7.77-.2-9.87-.22-19.73.25-29.58,0-.39,0-.78,0-1.16,1.75-34.54,10.61-70.59,35-95.32,12.47-12.66,28.3-21.57,45.23-27.4V398s77.53-4.52,90.54-4.9a202.75,202.75,0,0,0,28.1-3.35c11.58.91,36.68-20.74,38.76-37.87a46.81,46.81,0,0,0-3.93-26c-2.37-9.5-7.18-18.47-15.1-24.16-10.62-7.64-24.68-8.11-37.81-8.3l-10.09-.14L231.6,290.4v3.17a114.33,114.33,0,0,0-16.91,3.11c-25.44,6.82-47.15,24-63.33,44.6,0,0,0-25.25,0-27.54q0-32.06,0-64.07v-16c0-.9-.09-1.72-.13-2.44h0c-.08-1.17,0-2.07.71-2.65a3.41,3.41,0,0,1,1.38-.58c2.34-.5,5.38,0,7.79,0l32.47,0,129.87-.19c20.49,0,41.16-.05,61.19,4.17s39.67,13.06,53.3,28.19,20.3,35.59,23,55.82c4.34,33-2,69.25-25.23,93.39l-.07.09-.08.08c-15.22,15.76-36.27,25-57.71,29.94s-43.59,6-65.54,7.77c-12.77,1-25.72,2.33-37.57,7.11a67.16,67.16,0,0,0-19.16,11.82A66,66,0,0,0,245,477.8c-12.45,17.7-15.36,40-15,61.81l0,1.27v16.2l-40.11,0H151.23c0-.47.07-.93.1-1.39" transform="translate(-40.28 -163.58)"/><path class="cls-3" d="M230.31,548.63H230v-7.75c.05,2.5.15,5,.28,7.46C230.3,548.44,230.3,548.53,230.31,548.63Z" transform="translate(-40.28 -163.58)"/><path class="cls-3" d="M322.07,293.31l-54.77-.74c-11.89-.17-23.91-.32-35.7,1V290.4Z" transform="translate(-40.28 -163.58)"/><path class="cls-3" d="M395.26,351.9c-2.06,17-33.46,61.54-45.12,60.88a1.59,1.59,0,0,0-.38,0c-1.77.34-16.65-3.82-28.82-3.46-11.86.35-77.91,13.5-89.34,14.16-.93.05,0-26.27,0-27.19h0a1.6,1.6,0,0,1,1.09-1.51c4.4-1.49,8.87-2.76,13.37-3.83,22.21-5.31,45.26-6.15,68.12-6,12.09.08,24.34.41,36.15-2.2s23.38-8.58,30-18.59c6.22-9.36,7.48-21.27,5.87-32.36a56.93,56.93,0,0,0-1.16-5.9,34.41,34.41,0,0,0,2.63,3.94C391.2,334.73,396.42,342.36,395.26,351.9Z" transform="translate(-40.28 -163.58)"/><path class="cls-3" d="M230.81,556.4H230v-7.77h.3C230.45,551.22,230.62,553.82,230.81,556.4Z" transform="translate(-40.28 -163.58)"/><path class="cls-3" d="M230,539.61v1.27l0-1.27Z" transform="translate(-40.28 -163.58)"/><rect class="cls-3" x="111.05" y="422.15" width="78.65" height="35.8"/></svg>