<svg id="Layer_1" data-name="Layer 1" xmlns="http://www.w3.org/2000/svg" viewBox="0 0 563.44 672.38"><defs><style>.cls-1{fill:#626cb2;opacity:0.65;}.cls-2{fill:#e5f4f7;}.cls-3{fill:#2c3950;}</style></defs><path class="cls-1" d="M502,403.34c2.29-2.76,4.46-5.6,6.47-8.53a1.58,1.58,0,0,0,.12-.15c22.5-32,31.4-72.25,34.45-111.5,3.84-49.4-2-103.08-34.36-140.59C486.41,116.8,454,101.63,420.74,94.32s-67.52-7.44-101.53-7.52c-72.25,0-144.52-.36-216.77-.54q-27.36-.08-54.73-.13c-6.58,0-14.18-2-18,1.6A7,7,0,0,0,28,90.17c-.07.18-.14.35-.21.54h0c-2.5,6.93.23,20.81.23,28V756.91l42.21,0h30.33q30.79,0,61.59,0,90.07.06,180.19.13c38.49,0,77.69-.06,114.43-11.54,68.82-21.5,122.45-85.22,131.89-156.7S562.81,442,502,403.34ZM224,195.46q46.29.64,92.57,1.27l31.56,1s33,0,50.79,15.84a74.09,74.09,0,0,1,22.2,35.17,34.2,34.2,0,0,1,1.93,3.58q1.23,5,2,10.08c2.72,18.93.59,39.25-9.92,55.23-11.25,17.09-30.79,27.27-50.76,31.73s-40.66,3.89-61.1,3.75c-38.63-.24-77.59,1.21-115.14,10.27a253.68,253.68,0,0,0-24.44,7.16V197.18C183.58,194.92,203.9,195.18,224,195.46ZM445.18,589.63a68.07,68.07,0,0,1-6.46,15.77c-10.32,18-29.58,29.49-49.62,34.91s-41.08,5.47-61.84,5.5L163,646.05c-2.31-26.7-3.47-53.79,1.48-80.12C168,546.82,175,528,186.34,512.11,201,491.64,217,491.2,241.17,491.34l138.59.8c19.46.11,41.06,1.06,54.9,14.74,13,12.82,15,32.92,14.52,51.16C448.91,568.64,448,579.46,445.18,589.63Z" transform="translate(-26.71 -84.75)"/><path class="cls-2" d="M316.57,196.73q-46.29-.61-92.57-1.27c-20.1-.28-40.42-.54-60.35,1.72v-5.42Z" transform="translate(-26.71 -84.75)"/><path class="cls-2" d="M162.32,645.77H161V619.28q.14,6.4.49,12.73c0,.17,0,.33,0,.5C161.7,636.92,162,641.36,162.32,645.77Z" transform="translate(-26.71 -84.75)"/><path class="cls-3" d="M93.17,756.93l-23,0H27.81v0Z" transform="translate(-26.71 -84.75)"/><path class="cls-3" d="M163,646.93h-2" transform="translate(-26.71 -84.75)"/><path class="cls-3" d="M27.86,645.77c-.12-4.43-.22-8.83-.31-13.26-.32-16.84-.36-33.67.44-50.5,0-.65.05-1.32.08-2C31,521.09,46,459.56,87.22,417.34c21.06-21.6,47.82-36.8,76.43-46.76v4.84s131-7.7,153-8.35,47.5-5.72,47.5-5.72c19.56,1.55,62-35.39,65.52-64.64,2.6-21.7-3.38-37.6-6.65-44.35-4-16.2-12.15-31.52-25.53-41.23-17.94-13-41.71-13.85-63.89-14.16l-17.06-.24-152.92-5v5.42a191.33,191.33,0,0,0-28.57,5.3c-43,11.65-79.69,41-107,76.13,0,0,0-43.11,0-47q0-54.69,0-109.35V94.89c0-1.55-.16-2.94-.23-4.17h0c-.14-2-.05-3.53,1.21-4.53a5.57,5.57,0,0,1,2.32-1c4-.86,9.1,0,13.18,0l54.87-.09,219.51-.32c34.63-.07,69.56-.09,103.42,7.11s67.05,22.29,90.1,48.12c23.16,26,34.3,60.75,38.82,95.26,7.33,56.39-3.45,118.2-42.65,159.4a1.58,1.58,0,0,1-.12.15l-.14.14c-25.73,26.9-61.29,42.65-97.53,51.1S337.07,456.32,300,459.31c-21.58,1.74-43.47,4-63.5,12.15a113,113,0,0,0-32.38,20.17,111.72,111.72,0,0,0-17.86,20c-21,30.21-25.95,68.32-25.32,105.49,0,.73,0,1.45.05,2.17v27.65l-67.79,0H27.81c.07-.79.12-1.58.18-2.38" transform="translate(-26.71 -84.75)"/><path class="cls-3" d="M161.48,632.51H161V619.28q.14,6.4.49,12.73C161.46,632.18,161.46,632.34,161.48,632.51Z" transform="translate(-26.71 -84.75)"/><path class="cls-3" d="M316.57,196.73q-46.29-.61-92.57-1.27c-20.1-.28-40.42-.54-60.35,1.72v-5.42Z" transform="translate(-26.71 -84.75)"/><path class="cls-3" d="M429.7,296.71c-3.52,29.25-46,66.19-65.52,64.64,0,0-25.51,5.06-47.5,5.72s-153,8.35-153,8.35v-4.84a253.68,253.68,0,0,1,24.44-7.16c37.55-9.06,76.51-10.51,115.14-10.27,20.44.14,41.14.71,61.1-3.75s39.51-14.64,50.76-31.73c10.51-16,12.64-36.3,9.92-55.23q-.72-5.07-2-10.08C426.32,259.11,432.3,275,429.7,296.71Z" transform="translate(-26.71 -84.75)"/><path class="cls-3" d="M162.32,645.77H161V632.51h.52C161.7,636.92,162,641.36,162.32,645.77Z" transform="translate(-26.71 -84.75)"/><path class="cls-3" d="M161,617.11v2.17c0-.72,0-1.44-.05-2.17Z" transform="translate(-26.71 -84.75)"/><rect class="cls-3" x="1.28" y="611.07" width="132.93" height="61.1"/></svg>